<svg version="1.1" id="Layer_1" xmlns="http://www.w3.org/2000/svg" xmlns:xlink="http://www.w3.org/1999/xlink" x="0px" y="0px"
	 width="100%" viewBox="0 0 512 512" enable-background="new 0 0 512 512" xml:space="preserve">
<path fill="#000000" opacity="1.000000" stroke="none" 
	d="
M269.000000,513.000000 
	C179.355087,513.000000 90.210175,513.000000 1.032630,513.000000 
	C1.032630,342.396729 1.032630,171.793442 1.032630,1.095084 
	C171.561600,1.095084 342.123260,1.095084 512.842468,1.095084 
	C512.842468,171.666550 512.842468,342.333252 512.842468,513.000000 
	C431.793427,513.000000 350.646698,513.000000 269.000000,513.000000 
M264.104156,499.598328 
	C266.975128,499.957794 270.038055,501.147980 272.684631,500.536346 
	C285.766541,497.513123 287.935028,490.766174 289.002106,479.393066 
	C289.982788,468.940491 290.341614,458.377716 292.128937,448.063568 
	C295.779144,426.998962 303.894958,407.525574 315.141022,389.355042 
	C325.776947,372.170258 339.108765,357.406586 354.784760,344.669037 
	C370.125031,332.204315 387.150146,322.841431 405.639038,315.963196 
	C425.648560,308.519196 446.435791,305.663940 467.625092,305.003693 
	C476.506317,304.726929 484.039185,296.396118 484.000397,286.838989 
	C483.963318,277.703522 476.245850,269.426239 467.701569,268.955017 
	C459.491943,268.502289 451.292328,267.784241 443.107056,266.989685 
	C422.430756,264.982727 403.129272,258.468689 384.745056,248.981216 
	C363.650055,238.094833 345.279327,223.756714 330.074402,205.512024 
	C316.806976,189.592255 306.328644,171.932709 299.290649,152.439621 
	C294.591187,139.423691 290.888336,126.070198 289.964081,112.110947 
	C289.454559,104.415245 288.677246,96.737099 288.006592,89.052261 
	C287.143127,79.158249 279.337189,73.224693 270.028564,73.624916 
	C258.946838,74.101379 252.526779,81.427406 251.868668,92.016922 
	C251.097214,104.430420 250.262772,116.970016 247.812164,129.123520 
	C241.723770,159.318222 227.855774,185.956284 207.435715,208.921066 
	C189.313126,229.302032 167.639084,244.995972 142.236893,255.376831 
	C121.280220,263.940979 99.489586,268.408325 76.924721,268.939209 
	C62.992687,269.266968 56.602139,275.620789 57.000183,289.664276 
	C57.209007,297.031860 64.883682,304.442261 72.180588,305.068848 
	C84.750870,306.148193 97.387123,307.045105 109.809509,309.128632 
	C130.232697,312.554047 149.150833,320.352966 166.754044,331.259125 
	C185.089447,342.618896 200.952652,356.670502 214.338272,373.692169 
	C227.513229,390.445923 237.383606,408.921143 243.800339,429.075165 
	C249.378403,446.595032 252.205231,464.729980 252.031830,483.240082 
	C251.962646,490.624268 256.702087,496.957489 264.104156,499.598328 
M122.472771,116.018784 
	C123.802704,114.358040 124.948044,112.497734 126.492630,111.069069 
	C136.235031,102.057854 147.140366,95.841194 161.006638,95.913940 
	C169.290985,95.957405 173.696854,90.486725 173.086990,83.693138 
	C172.567139,77.902267 168.086716,74.149673 160.761246,73.956947 
	C157.668884,73.875580 154.505890,73.657600 151.516785,72.924034 
	C130.496918,67.765495 113.652534,49.172050 112.917664,27.883097 
	C112.808525,24.721422 112.304688,21.217367 110.793846,18.544014 
	C108.560280,14.591846 104.867661,12.098045 99.819183,13.626387 
	C93.175407,15.637677 91.166763,18.287930 90.987137,24.769575 
	C90.629181,37.685810 86.241707,48.961102 77.185661,58.323734 
	C67.256721,68.588814 55.371330,74.126579 40.897942,74.057487 
	C32.434269,74.017090 27.504734,83.968491 31.468964,90.281830 
	C34.725246,95.467712 39.480373,95.597275 44.177818,95.907059 
	C59.608898,96.924713 71.643791,104.060890 80.925171,115.967751 
	C87.849640,124.850960 90.990181,135.173813 91.065979,146.505173 
	C91.102898,152.024231 96.710243,157.000687 102.072861,156.895386 
	C107.107300,156.796555 111.562187,152.123779 112.024246,146.746399 
	C112.955132,135.912781 115.357414,125.533386 122.472771,116.018784 
M385.067444,161.050232 
	C394.315094,164.832886 400.499847,171.321945 402.628601,181.248428 
	C403.174438,183.793747 402.850769,186.567017 403.629669,189.011536 
	C404.931213,193.096344 409.955780,195.760513 413.874268,194.956299 
	C418.794250,193.946564 421.837036,189.813278 421.984467,183.645172 
	C422.288757,170.912598 433.502075,160.523071 446.161346,160.016968 
	C452.323700,159.770615 457.118042,155.578232 456.966003,150.360107 
	C456.829803,145.685989 451.685974,141.242065 446.062805,141.006912 
	C437.634857,140.654434 430.598572,137.303894 426.578247,129.882492 
	C423.942230,125.016525 422.682953,119.365051 421.101471,113.978943 
	C419.589417,108.829300 416.214233,105.761398 411.690826,106.012451 
	C406.842133,106.281570 403.032257,110.060730 403.074707,115.513474 
	C403.173462,128.200287 391.664001,141.238632 377.479034,141.077896 
	C371.857147,141.014191 368.071045,145.112915 368.000275,150.313278 
	C367.924561,155.878281 371.553467,159.526413 377.503448,160.020172 
	C379.762939,160.207672 382.000793,160.656082 385.067444,161.050232 
z"/>
<path fill="#00C7B8" opacity="1.000000" stroke="none" 
	d="
M263.787354,499.349976 
	C256.702087,496.957489 251.962646,490.624268 252.031830,483.240082 
	C252.205231,464.729980 249.378403,446.595032 243.800339,429.075165 
	C237.383606,408.921143 227.513229,390.445923 214.338272,373.692169 
	C200.952652,356.670502 185.089447,342.618896 166.754044,331.259125 
	C149.150833,320.352966 130.232697,312.554047 109.809509,309.128632 
	C97.387123,307.045105 84.750870,306.148193 72.180588,305.068848 
	C64.883682,304.442261 57.209007,297.031860 57.000183,289.664276 
	C56.602139,275.620789 62.992687,269.266968 76.924721,268.939209 
	C99.489586,268.408325 121.280220,263.940979 142.236893,255.376831 
	C167.639084,244.995972 189.313126,229.302032 207.435715,208.921066 
	C227.855774,185.956284 241.723770,159.318222 247.812164,129.123520 
	C250.262772,116.970016 251.097214,104.430420 251.868668,92.016922 
	C252.526779,81.427406 258.946838,74.101379 270.028564,73.624916 
	C279.337189,73.224693 287.143127,79.158249 288.006592,89.052261 
	C288.677246,96.737099 289.454559,104.415245 289.964081,112.110947 
	C290.888336,126.070198 294.591187,139.423691 299.290649,152.439621 
	C306.328644,171.932709 316.806976,189.592255 330.074402,205.512024 
	C345.279327,223.756714 363.650055,238.094833 384.745056,248.981216 
	C403.129272,258.468689 422.430756,264.982727 443.107056,266.989685 
	C451.292328,267.784241 459.491943,268.502289 467.701569,268.955017 
	C476.245850,269.426239 483.963318,277.703522 484.000397,286.838989 
	C484.039185,296.396118 476.506317,304.726929 467.625092,305.003693 
	C446.435791,305.663940 425.648560,308.519196 405.639038,315.963196 
	C387.150146,322.841431 370.125031,332.204315 354.784760,344.669037 
	C339.108765,357.406586 325.776947,372.170258 315.141022,389.355042 
	C303.894958,407.525574 295.779144,426.998962 292.128937,448.063568 
	C290.341614,458.377716 289.982788,468.940491 289.002106,479.393066 
	C287.935028,490.766174 285.766541,497.513123 272.684631,500.536346 
	C270.038055,501.147980 266.975128,499.957794 263.787354,499.349976 
z"/>
<path fill="#00C7B8" opacity="1.000000" stroke="none" 
	d="
M122.218689,116.286674 
	C115.357414,125.533386 112.955132,135.912781 112.024246,146.746399 
	C111.562187,152.123779 107.107300,156.796555 102.072861,156.895386 
	C96.710243,157.000687 91.102898,152.024231 91.065979,146.505173 
	C90.990181,135.173813 87.849640,124.850960 80.925171,115.967751 
	C71.643791,104.060890 59.608898,96.924713 44.177818,95.907059 
	C39.480373,95.597275 34.725246,95.467712 31.468964,90.281830 
	C27.504734,83.968491 32.434269,74.017090 40.897942,74.057487 
	C55.371330,74.126579 67.256721,68.588814 77.185661,58.323734 
	C86.241707,48.961102 90.629181,37.685810 90.987137,24.769575 
	C91.166763,18.287930 93.175407,15.637677 99.819183,13.626387 
	C104.867661,12.098045 108.560280,14.591846 110.793846,18.544014 
	C112.304688,21.217367 112.808525,24.721422 112.917664,27.883097 
	C113.652534,49.172050 130.496918,67.765495 151.516785,72.924034 
	C154.505890,73.657600 157.668884,73.875580 160.761246,73.956947 
	C168.086716,74.149673 172.567139,77.902267 173.086990,83.693138 
	C173.696854,90.486725 169.290985,95.957405 161.006638,95.913940 
	C147.140366,95.841194 136.235031,102.057854 126.492630,111.069069 
	C124.948044,112.497734 123.802704,114.358040 122.218689,116.286674 
z"/>
<path fill="#00C7B8" opacity="1.000000" stroke="none" 
	d="
M384.657959,161.017914 
	C382.000793,160.656082 379.762939,160.207672 377.503448,160.020172 
	C371.553467,159.526413 367.924561,155.878281 368.000275,150.313278 
	C368.071045,145.112915 371.857147,141.014191 377.479034,141.077896 
	C391.664001,141.238632 403.173462,128.200287 403.074707,115.513474 
	C403.032257,110.060730 406.842133,106.281570 411.690826,106.012451 
	C416.214233,105.761398 419.589417,108.829300 421.101471,113.978943 
	C422.682953,119.365051 423.942230,125.016525 426.578247,129.882492 
	C430.598572,137.303894 437.634857,140.654434 446.062805,141.006912 
	C451.685974,141.242065 456.829803,145.685989 456.966003,150.360107 
	C457.118042,155.578232 452.323700,159.770615 446.161346,160.016968 
	C433.502075,160.523071 422.288757,170.912598 421.984467,183.645172 
	C421.837036,189.813278 418.794250,193.946564 413.874268,194.956299 
	C409.955780,195.760513 404.931213,193.096344 403.629669,189.011536 
	C402.850769,186.567017 403.174438,183.793747 402.628601,181.248428 
	C400.499847,171.321945 394.315094,164.832886 384.657959,161.017914 
z"/>
</svg>